<svg width="235" height="180" viewBox="82 110 235 180" fill="none" xmlns="http://www.w3.org/2000/svg">
<path d="M199.999 110.008C228.188 110.008 252.573 126.455 264.271 150.369C264.575 150.992 265.307 151.273 265.941 151.008C279.339 145.413 294.023 142.325 309.421 142.325L309.629 142.328C313.994 142.44 317.499 146.05 317.499 150.487V280.663C317.499 285.661 313.489 289.712 308.542 289.712H91.4568C86.5105 289.712 82.5005 285.661 82.5005 280.663V150.487C82.5005 146.05 86.0048 142.44 90.3698 142.328L90.5785 142.325C105.976 142.325 120.659 145.414 134.056 151.008C134.691 151.273 135.422 150.992 135.726 150.369C147.424 126.455 171.81 110.008 199.999 110.008ZM90.5785 150.082C90.3571 150.082 90.1774 150.263 90.1774 150.487V280.663L90.1842 280.795C90.2497 281.447 90.7944 281.956 91.4568 281.956H127.069C127.775 281.956 128.348 281.377 128.348 280.663V182.399C128.348 174.513 129.597 166.921 131.905 159.814C132.115 159.169 131.808 158.465 131.187 158.205C118.676 152.971 104.962 150.082 90.5785 150.082ZM136.025 280.663C136.025 281.377 136.598 281.956 137.304 281.956H194.242C194.949 281.956 195.521 281.377 195.521 280.663V257.402C195.521 256.466 195.533 255.532 195.555 254.6C195.571 253.902 195.04 253.311 194.351 253.254C170.385 251.257 149.823 237.128 138.699 216.958C138.028 215.742 136.025 216.208 136.025 217.6V280.663ZM263.973 218.33C263.973 216.948 262.004 216.476 261.324 217.675C250.044 237.579 229.515 251.442 205.656 253.287C204.963 253.341 204.428 253.932 204.444 254.633C204.466 255.554 204.478 256.477 204.478 257.402V280.663C204.478 281.377 205.05 281.956 205.757 281.956H262.693C263.4 281.956 263.973 281.377 263.973 280.663V218.33ZM309.421 150.082C295.037 150.082 281.321 152.971 268.81 158.206C268.189 158.465 267.882 159.17 268.092 159.815C270.4 166.922 271.65 174.513 271.65 182.399V280.663C271.65 281.377 272.222 281.956 272.929 281.956H308.542C309.205 281.956 309.749 281.447 309.815 280.795L309.822 280.663V150.487C309.822 150.263 309.642 150.082 309.421 150.082ZM214.323 213.991C213.682 213.346 212.592 213.526 212.226 214.364C207.993 224.057 205.133 234.499 203.896 245.44C203.885 245.529 203.885 245.62 203.894 245.709C203.961 246.385 204.543 246.891 205.213 246.839C218.927 245.767 231.429 240.326 241.357 231.891C242.145 231.222 241.827 229.944 240.836 229.663C230.678 226.78 221.593 221.307 214.323 213.991ZM187.838 214.513C187.474 213.676 186.386 213.493 185.743 214.136C178.536 221.341 169.559 226.743 159.53 229.619C158.542 229.902 158.226 231.176 159.011 231.845C168.851 240.222 181.224 245.657 194.805 246.805C195.464 246.862 196.038 246.364 196.105 245.7C196.114 245.613 196.113 245.524 196.103 245.437C194.871 234.553 192.035 224.163 187.838 214.513ZM201.399 194.866C200.924 193.764 199.285 193.764 198.81 194.866C197.208 198.592 195.25 202.127 192.983 205.427C192.713 205.82 192.673 206.33 192.881 206.759C195.122 211.37 197.065 216.153 198.687 221.086C199.092 222.315 200.907 222.315 201.311 221.086C202.954 216.091 204.927 211.247 207.203 206.583C207.412 206.155 207.373 205.645 207.105 205.253C204.888 202.003 202.972 198.527 201.399 194.866ZM261.218 163.585C260.989 162.823 260.129 162.47 259.435 162.847C241.782 172.428 227.109 186.886 217.182 204.439C216.916 204.908 216.972 205.496 217.326 205.902C225.306 215.064 236.319 221.464 248.78 223.501C249.222 223.573 249.668 223.401 249.949 223.05C257.819 213.232 262.901 201.041 263.973 187.703V182.399C263.973 175.855 263.008 169.538 261.218 163.585ZM140.748 162.945C140.053 162.566 139.191 162.92 138.962 163.684C137.191 169.609 136.238 175.891 136.238 182.399C136.238 197.788 141.562 211.918 150.449 223.018C150.731 223.37 151.18 223.543 151.622 223.469C163.936 221.408 174.824 215.086 182.753 206.05C183.108 205.645 183.165 205.056 182.901 204.585C173.006 187.027 158.368 172.554 140.748 162.945ZM171.87 125.145C171.492 124.896 171.01 124.874 170.611 125.085C158.626 131.416 148.874 141.472 142.859 153.732C142.552 154.357 142.809 155.111 143.42 155.435C161.405 164.969 176.556 179.215 187.266 196.553C187.776 197.377 188.968 197.379 189.437 196.531C193.718 188.776 196.16 179.844 196.16 170.335C196.16 151.401 186.491 134.749 171.87 125.145ZM229.599 125.084C229.2 124.873 228.718 124.896 228.341 125.144C213.898 134.631 204.288 150.993 204.054 169.638L204.05 170.335C204.05 179.769 206.451 188.635 210.67 196.346C211.135 197.198 212.329 197.199 212.841 196.375C223.578 179.065 238.748 164.848 256.743 155.347C257.357 155.023 257.614 154.267 257.306 153.64C251.287 141.422 241.554 131.4 229.599 125.084ZM200.12 117.764C193.8 117.773 187.695 118.708 181.93 120.441C180.947 120.737 180.732 122.032 181.526 122.69C188.96 128.858 194.926 136.768 198.81 145.802C199.285 146.905 200.924 146.905 201.399 145.802C205.283 136.768 211.248 128.858 218.682 122.69C219.476 122.032 219.261 120.737 218.278 120.441C212.523 118.711 206.429 117.776 200.12 117.764Z" fill="white"/>
</svg>
