<svg width="207" height="158" viewBox="0 0 207 158" fill="none" xmlns="http://www.w3.org/2000/svg">
<path d="M103.34 0C128.132 0 149.579 14.4609 159.867 35.4866C160.135 36.0339 160.778 36.2816 161.336 36.0484C173.119 31.1292 186.034 28.4144 199.576 28.4144L199.76 28.4166C203.599 28.5149 206.681 31.6893 206.681 35.5902V150.044C206.681 154.438 203.154 158 198.804 158H7.87712C3.52679 158 0 154.438 0 150.044V35.5902C0 31.6893 3.08208 28.5149 6.92107 28.4166L7.1046 28.4144C20.6464 28.4144 33.5603 31.1295 45.3428 36.0484C45.9014 36.2816 46.5444 36.0339 46.8122 35.4866C57.1001 14.4608 78.5479 0 103.34 0ZM7.1046 35.2339C6.90987 35.2339 6.75182 35.3935 6.75182 35.5902V150.044L6.75784 150.16C6.8154 150.733 7.2945 151.181 7.87712 151.181H39.1977C39.8192 151.181 40.323 150.672 40.323 150.044V63.6483C40.323 56.7142 41.4217 50.0393 43.4514 43.7909C43.6357 43.2238 43.3658 42.6044 42.8199 42.3761C31.8168 37.7744 19.7545 35.2339 7.1046 35.2339ZM47.0748 150.044C47.0748 150.672 47.5786 151.181 48.2001 151.181H98.2767C98.8984 151.181 99.402 150.672 99.402 150.044V129.592C99.402 128.769 99.4121 127.948 99.4312 127.129C99.4459 126.515 98.9789 125.996 98.3723 125.945C77.2943 124.19 59.2106 111.767 49.4264 94.0329C48.8363 92.9634 47.0748 93.3731 47.0748 94.5972V150.044ZM159.605 95.2388C159.605 94.0238 157.873 93.609 157.275 94.6637C147.355 112.163 129.3 124.352 108.316 125.974C107.706 126.021 107.235 126.541 107.25 127.158C107.269 127.967 107.279 128.779 107.279 129.592V150.044C107.279 150.672 107.783 151.181 108.404 151.181H158.48C159.102 151.181 159.605 150.672 159.605 150.044V95.2388ZM199.576 35.2339C186.926 35.2339 174.863 37.7746 163.859 42.3767C163.314 42.605 163.044 43.2243 163.228 43.7914C165.258 50.0397 166.357 56.7143 166.357 63.6483V150.044C166.357 150.672 166.861 151.181 167.482 151.181H198.804C199.387 151.181 199.866 150.733 199.923 150.16L199.929 150.044V35.5902C199.929 35.3935 199.771 35.2339 199.576 35.2339ZM115.938 91.4245C115.375 90.8567 114.415 91.0159 114.094 91.7518C110.371 100.274 107.856 109.456 106.767 119.075C106.758 119.154 106.758 119.233 106.766 119.312C106.825 119.905 107.336 120.35 107.926 120.305C119.988 119.363 130.983 114.578 139.715 107.162C140.407 106.574 140.128 105.45 139.256 105.203C130.322 102.669 122.332 97.8564 115.938 91.4245ZM92.6445 91.8831C92.3244 91.1471 91.3673 90.9863 90.8019 91.5518C84.463 97.8865 76.5679 102.636 67.7478 105.165C66.879 105.413 66.6011 106.534 67.2914 107.122C75.945 114.487 86.8278 119.266 98.7718 120.275C99.3513 120.325 99.856 119.888 99.9151 119.304C99.923 119.227 99.9224 119.149 99.9134 119.072C98.8303 109.503 96.3355 100.368 92.6445 91.8831ZM104.571 74.6094C104.154 73.6399 102.712 73.6399 102.295 74.6094C100.885 77.8856 99.1634 80.993 97.1694 83.8946C96.9319 84.2402 96.8965 84.6886 97.0799 85.0659C99.0503 89.1195 100.76 93.3254 102.187 97.662C102.543 98.7429 104.138 98.7429 104.494 97.662C105.939 93.2703 107.674 89.0121 109.676 84.9107C109.859 84.5345 109.826 84.0867 109.59 83.7412C107.64 80.8839 105.955 77.8276 104.571 74.6094ZM157.182 47.1063C156.981 46.4365 156.225 46.126 155.614 46.4573C140.088 54.8813 127.183 67.5933 118.452 83.0257C118.219 83.4383 118.268 83.9555 118.579 84.3123C125.598 92.3678 135.284 97.9944 146.243 99.7857C146.632 99.8493 147.024 99.6976 147.271 99.389C154.193 90.7573 158.662 80.0383 159.605 68.3111V63.6483C159.605 57.8943 158.757 52.3406 157.182 47.1063ZM51.2286 46.5439C50.6172 46.2106 49.8591 46.5219 49.6582 47.1935C48.1005 52.4022 47.2622 57.9262 47.2622 63.6483C47.2622 77.1781 51.9448 89.602 59.7604 99.3606C60.0091 99.6709 60.4035 99.8226 60.7928 99.7573C71.6227 97.9456 81.1985 92.3871 88.172 84.4425C88.4843 84.0862 88.5349 83.5685 88.302 83.1547C79.6 67.7172 66.7254 54.9917 51.2286 46.5439ZM78.6002 13.3086C78.2682 13.0903 77.8445 13.0707 77.4935 13.2562C66.9527 18.8228 58.3757 27.6638 53.0854 38.4429C52.8155 38.9929 53.0411 39.6557 53.5792 39.9409C69.3963 48.3227 82.7216 60.8489 92.1415 76.0921C92.59 76.8166 93.6382 76.8189 94.0506 76.0727C97.8159 69.255 99.9635 61.4012 99.9635 53.0406C99.9635 36.394 91.4596 21.7534 78.6002 13.3086ZM129.373 13.2557C129.022 13.0701 128.599 13.0898 128.267 13.308C115.565 21.6491 107.112 36.0352 106.907 52.4284L106.903 53.0406C106.903 61.3353 109.015 69.1311 112.725 75.9108C113.135 76.6598 114.185 76.6603 114.635 75.9358C124.078 60.7165 137.42 48.2167 153.247 39.8631C153.787 39.5783 154.013 38.9135 153.742 38.3628C148.448 27.62 139.888 18.8085 129.373 13.2557ZM103.446 6.81946C97.8879 6.82736 92.5185 7.6491 87.4484 9.17342C86.5836 9.43347 86.3952 10.5718 87.0928 11.1503C93.6314 16.5735 98.8782 23.5277 102.295 31.4707C102.712 32.4404 104.154 32.4404 104.571 31.4707C107.987 23.5279 113.234 16.5735 119.772 11.1503C120.47 10.5718 120.281 9.43347 119.417 9.17342C114.355 7.65171 108.995 6.82986 103.446 6.81946Z" fill="white"/>
</svg>
